<svg xmlns="http://www.w3.org/2000/svg" width="147" height="60" viewBox="0 0 147 60" fill="none">
  <g clip-path="url(#clip0_187_64)">
    <path fill-rule="evenodd" clip-rule="evenodd" d="M48.3235 38.7743V10.4319H53.5112V38.7743H48.3235ZM89.6066 38.7743V10.4319H94.7943V38.7743H89.6066ZM124.323 15.4822H115.465V38.7743H110.277V15.4822H101.991L99.0519 10.4319H127.466L134.311 23.1363L141.155 10.4319H147L136.924 28.9951L136.883 38.7743H131.697V29.0732L124.322 15.4825L124.323 15.4822ZM15.9654 15.4822V38.7743H10.7777V15.4822H2.62539L-0.189453 10.4319H33.5882C36.1925 10.4319 38.7469 11.056 40.6701 12.9243C42.5078 14.7091 43.2425 17.0198 43.2425 19.5668C43.2425 21.6865 42.7305 23.7111 41.36 25.3534C40.1356 26.8206 38.5053 27.6782 36.7009 28.1248L44.9433 38.7743H38.5278L30.7475 28.5053H27.1374V38.7743H21.9495V23.7141C25.6737 23.7141 29.3973 23.7701 33.1213 23.7701C34.401 23.7701 35.8231 23.5405 36.8025 22.6356C37.674 21.8306 38.0158 20.7865 38.0158 19.6067C38.0158 18.4378 37.6803 17.3953 36.805 16.5997C35.8226 15.7068 34.3956 15.4827 33.1213 15.4827C27.4026 15.4827 21.6842 15.4827 15.9656 15.4827L15.9654 15.4822ZM66.6143 19.2123L66.5511 38.7741H61.3631V15.482V15.4223L58.4564 10.4316H67.1484L79.7199 30.0494L79.7629 10.4316H84.9509V38.7738H79.1271L66.6141 19.212L66.6143 19.2123Z" fill="#FEFEFE"/>
    <path d="M15.8991 56.7589L15.2979 55.0588H12.4144L11.8031 56.7589H10.2646L12.934 49.5457H14.778L17.4474 56.7589H15.8988H15.8991ZM12.9138 53.6572H14.7884L13.8513 51.0398L12.914 53.6572H12.9138ZM22.4095 49.5455H23.887V53.8425C23.887 54.8247 23.6154 55.5771 23.0719 56.099C22.5286 56.6212 21.819 56.8824 20.9427 56.8824C20.0664 56.8824 19.3567 56.6214 18.8132 56.099C18.2699 55.5771 17.9984 54.8247 17.9984 53.8425V49.5455H19.4756V53.7601C19.4756 54.9074 19.9648 55.481 20.9429 55.481C21.921 55.481 22.41 54.9074 22.41 53.7601V49.5455H22.4095ZM30.4585 49.5455V50.9469H28.4004V56.7587H26.9434V50.9469H24.8954V49.5455H30.4583H30.4585ZM32.2059 50.4935C32.9158 49.7789 33.797 49.4216 34.8498 49.4216C35.9029 49.4216 36.7859 49.7789 37.499 50.4935C38.2122 51.2078 38.5689 52.0941 38.5689 53.1521C38.5689 54.2101 38.2122 55.0964 37.499 55.8107C36.7859 56.5253 35.9029 56.8826 34.8498 56.8826C33.797 56.8826 32.9158 56.5253 32.2059 55.8107C31.4962 55.0964 31.1411 54.2101 31.1411 53.1521C31.1411 52.0941 31.4962 51.2078 32.2059 50.4935ZM36.4545 51.4827C36.0298 51.043 35.4951 50.8232 34.8496 50.8232C34.2043 50.8232 33.6696 51.043 33.2449 51.4827C32.8205 51.9222 32.608 52.4787 32.608 53.1521C32.608 53.8252 32.8205 54.3818 33.2449 54.8215C33.6696 55.2612 34.2043 55.481 34.8496 55.481C35.4951 55.481 36.0298 55.2612 36.4545 54.8215C36.8789 54.3818 37.0912 53.8255 37.0912 53.1521C37.0912 52.479 36.8789 51.9222 36.4545 51.4827ZM46.9641 56.7587L45.1199 54.162H44.3152V56.7587H42.8582V52.8738C43.8262 52.8738 44.7941 52.8738 45.762 52.8738C46.1353 52.8738 46.4156 52.7898 46.6025 52.6215C46.7894 52.4532 46.8826 52.218 46.8826 51.9156C46.8826 51.6134 46.7876 51.3763 46.5973 51.2046C46.4071 51.0329 46.1286 50.9471 45.762 50.9471C44.7975 50.9471 43.8446 50.9234 42.8582 50.9234V49.5455H45.925C46.6858 49.5455 47.2818 49.7568 47.7132 50.1792C48.1446 50.6019 48.36 51.1737 48.36 51.8951C48.36 52.4721 48.2209 52.9426 47.9424 53.3067C47.6639 53.6706 47.2699 53.9181 46.7603 54.0486L48.7574 56.7587H46.9641ZM54.5952 50.9469H51.2636V52.3997H54.3202V53.8011H51.2636V55.3571H54.5952V56.7585H49.8066V49.5452H54.5952V50.9466V50.9469ZM60.3518 49.5455H61.8088V56.7587H60.1278L57.0306 51.7095L57.163 53.7394V56.7587H55.7061V49.5455H57.3769L60.4842 54.5947L60.3518 52.5648V49.5455ZM68.3803 49.5455V50.9469H66.3222V56.7587H64.8652V50.9469H62.8172V49.5455H68.3801H68.3803ZM73.6988 56.7587L73.0976 55.0586H70.2141L69.6028 56.7587H68.0644L70.7338 49.5455H72.5778L75.2472 56.7587H73.6986H73.6988ZM70.7135 53.657H72.5881L71.6511 51.0395L70.7137 53.657H70.7135ZM77.7641 55.3571H80.8208V56.7585H76.3072V49.5452H77.7641V55.3571ZM89.3588 52.8736C89.7323 52.9972 90.0142 53.2191 90.2044 53.5383C90.3947 53.8578 90.4897 54.2372 90.4897 54.6769C90.4897 55.3296 90.274 55.8396 89.8428 56.207C89.4114 56.5745 88.8256 56.7583 88.0851 56.7583H84.937V52.3995L87.9119 52.3993C88.4892 52.3993 88.7779 52.1556 88.7779 51.6676C88.7779 51.4066 88.7051 51.221 88.559 51.1113C88.4129 51.0015 88.1837 50.9464 87.8714 50.9464C86.8933 50.9464 85.9153 50.9464 84.937 50.9464V49.545H88.0648C88.7371 49.545 89.2687 49.7065 89.6593 50.0294C90.0498 50.3523 90.2452 50.8162 90.2452 51.4205C90.2452 52.0868 89.9496 52.5712 89.3588 52.8734V52.8736ZM88.0545 55.3571C88.4079 55.3571 88.6556 55.2883 88.7984 55.151C88.9409 55.0135 89.0125 54.8142 89.0125 54.5533C89.0125 54.2784 88.9409 54.0757 88.7984 53.9452C88.6556 53.8148 88.4043 53.7494 88.0443 53.7494H86.3937V55.3569H88.0542L88.0545 55.3571ZM92.4102 50.4932C93.1201 49.7787 94.0014 49.4214 95.0542 49.4214C96.1072 49.4214 96.9903 49.7787 97.7033 50.4932C98.4166 51.2076 98.7732 52.0939 98.7732 53.1519C98.7732 54.2099 98.4166 55.0961 97.7033 55.8105C96.9903 56.5251 96.1072 56.8824 95.0542 56.8824C94.0014 56.8824 93.1201 56.5251 92.4102 55.8105C91.7006 55.0961 91.3455 54.2099 91.3455 53.1519C91.3455 52.0939 91.7006 51.2076 92.4102 50.4932ZM96.6588 51.4825C96.2342 51.0427 95.6995 50.823 95.054 50.823C94.4087 50.823 93.8739 51.0427 93.4493 51.4825C93.0249 51.922 92.8124 52.4785 92.8124 53.1519C92.8124 53.825 93.0249 54.3816 93.4493 54.8213C93.8739 55.261 94.4087 55.4808 95.054 55.4808C95.6995 55.4808 96.2342 55.261 96.6588 54.8213C97.0833 54.3816 97.2956 53.8252 97.2956 53.1519C97.2956 52.4787 97.0833 51.922 96.6588 51.4825ZM104.417 49.545H105.895V53.8421C105.895 54.8242 105.623 55.5766 105.08 56.0986C104.536 56.6207 103.827 56.8819 102.95 56.8819C102.074 56.8819 101.365 56.621 100.821 56.0986C100.278 55.5766 100.006 54.8242 100.006 53.8421V49.545H101.483V53.7597C101.483 54.9069 101.973 55.4805 102.951 55.4805C103.929 55.4805 104.418 54.9069 104.418 53.7597V49.545H104.417ZM112.466 49.545V50.9464H110.408V56.7583H108.951V50.9464H106.903V49.545H112.466H112.466ZM113.526 56.7583V49.545H114.983V56.7583H113.526ZM123.643 53.1516C123.643 54.1821 123.304 55.0511 122.624 55.7588L123.643 57.1294L122.533 57.9743L121.473 56.5627C120.991 56.7758 120.475 56.8821 119.924 56.8821C118.872 56.8821 117.99 56.5249 117.28 55.8103C116.571 55.0959 116.216 54.2096 116.216 53.1516C116.216 52.0937 116.571 51.2074 117.28 50.493C117.99 49.7784 118.872 49.4211 119.924 49.4211C120.977 49.4211 121.861 49.7784 122.574 50.493C123.287 51.2074 123.643 52.0937 123.643 53.1516H123.643ZM118.32 51.4822C117.895 51.9217 117.683 52.4783 117.683 53.1516C117.683 53.8248 117.895 54.3813 118.32 54.8211C118.744 55.2608 119.279 55.4805 119.924 55.4805C120.57 55.4805 121.105 55.2608 121.529 54.8211C121.954 54.3813 122.166 53.825 122.166 53.1516C122.166 52.4785 121.954 51.9217 121.529 51.4822C121.105 51.0425 120.57 50.8228 119.924 50.8228C119.279 50.8228 118.744 51.0425 118.32 51.4822ZM129.288 49.5448H130.765V53.8419C130.765 54.824 130.494 55.5764 129.95 56.0983C129.407 56.6205 128.697 56.8817 127.821 56.8817C126.945 56.8817 126.235 56.6207 125.691 56.0983C125.148 55.5764 124.877 54.824 124.877 53.8419V49.5448H126.354V53.7594C126.354 54.9067 126.843 55.4803 127.821 55.4803C128.799 55.4803 129.288 54.9067 129.288 53.7594V49.5448H129.288ZM137.051 50.9462H133.72V52.399H136.777V53.8004H133.72V55.3564H137.051V56.7578H132.263V49.5446H137.051V50.946V50.9462Z" fill="#FEFEFE"/>
  </g>
  <defs>
    <clipPath id="clip0_187_64">
      <rect width="147" height="60" fill="white"/>
    </clipPath>
  </defs>
</svg>